<?xml version="1.0" encoding="UTF-8" standalone="no"?>
<!-- Created with Inkscape (http://www.inkscape.org/) -->

<svg
        fill="#2f353b"
   width="71.755005mm"
   height="92.782257mm"
   viewBox="0 0 71.755005 92.782257"
   version="1.1"
   id="svg546"
   xmlns="http://www.w3.org/2000/svg"
   xmlns:svg="http://www.w3.org/2000/svg">
  <defs
     id="defs543" />
  <g
     id="layer1"
     transform="translate(-29.965165,-181.93425)">
    <path
       d="m 41.218777,182.53567 c -5.115278,1.69334 -8.925278,6.27945 -10.583334,12.7 -0.635,2.50473 -0.670278,4.16278 -0.670278,33.12584 v 30.44472 h 4.7625 4.727223 l 0.105833,-31.15028 0.105834,-31.115 0.881944,-1.72861 c 1.093611,-2.15195 2.257778,-3.06917 4.268612,-3.28083 1.834444,-0.21167 3.563055,0.77611 4.656667,2.61055 1.128888,1.94028 1.27,6.56167 1.305277,36.15973 v 28.50444 h 4.762501 4.727222 l 0.105834,-31.50306 c 0.105833,-30.65639 0.141111,-31.50305 0.811389,-32.84361 0.9525,-1.86972 2.2225,-2.75167 4.303889,-2.92805 1.375833,-0.14112 1.940278,0 2.892778,0.67027 2.2225,1.48167 2.54,2.46945 3.069166,9.38389 1.728612,22.50723 4.056945,35.52473 8.572501,47.8014 l 1.693333,4.65666 -1.234722,2.46945 c -1.763889,3.59833 -4.445,7.33777 -6.879167,9.56028 l -2.116667,1.97555 3.316112,3.31611 c 1.799166,1.83445 3.421944,3.28084 3.527778,3.24556 0.564444,-0.24695 4.445,-5.00945 6.208889,-7.69056 2.398889,-3.56305 2.293056,-3.45722 2.469444,-2.92805 0.388056,1.09361 4.480279,6.87916 6.138334,8.67833 l 1.905,2.04611 3.316112,-3.35139 3.351389,-3.35139 -2.328334,-2.25777 c -2.469444,-2.43417 -5.150556,-6.17362 -6.914445,-9.66612 l -1.093611,-2.15194 1.199445,-3.10445 c 4.974167,-12.7 9.031115,-34.74861 9.101665,-49.53 0,-3.98639 -0.14111,-5.15055 -0.77611,-7.23194 -1.72861,-5.32695 -4.7625,-9.17223 -8.784166,-11.04195 -1.763889,-0.84667 -2.434167,-0.9525 -5.362223,-0.91722 -2.822222,0 -3.668889,0.14111 -5.362223,0.91722 -1.093611,0.52917 -2.681111,1.5875 -3.563055,2.36361 l -1.552223,1.41111 -1.305278,-1.34055 c -0.740833,-0.74084 -2.2225,-1.79917 -3.316111,-2.36361 -1.834444,-0.91723 -2.363611,-1.02306 -5.538611,-0.98778 -3.033889,0 -3.810001,0.14111 -5.468056,0.91722 -1.058334,0.49389 -2.681111,1.55222 -3.563056,2.32833 l -1.622778,1.44639 -1.305278,-1.34055 c -3.069167,-3.13972 -8.5725,-4.37445 -12.946945,-2.92806 z m 47.977781,9.525 c 3.175,1.5875 3.668889,6.56167 2.116667,21.41362 -0.846667,8.21972 -2.081389,15.80444 -3.739445,22.93055 -1.023056,4.33917 -1.023056,4.33917 -2.187222,-0.91722 -1.905001,-8.89 -3.280834,-19.15583 -3.951112,-29.45695 -0.635,-9.66611 0.03528,-12.80583 2.998612,-14.11111 1.516944,-0.635 3.351389,-0.59972 4.7625,0.14111 z"
       id="path119"
       style="stroke-width:0.0352778" />
  </g>
</svg>
