<?xml version="1.0" encoding="UTF-8" standalone="no"?>
<!-- Created with Inkscape (http://www.inkscape.org/) -->

<svg
        fill="#f1faee"
   width="84.409676mm"
   height="84.916107mm"
   viewBox="0 0 84.409676 84.916107"
   version="1.1"
   id="svg797"
   xmlns="http://www.w3.org/2000/svg"
   xmlns:svg="http://www.w3.org/2000/svg">
  <defs
     id="defs794" />
  <g
     id="layer1"
     transform="translate(-21.513875,-123.91858)">
    <path
       d="m 85.013879,124.09747 c -5.926667,0.84666 -10.900834,4.65666 -13.687779,10.44222 -1.834444,3.91583 -1.940278,8.85472 -0.246944,13.22917 0.176389,0.49389 0,0.59972 -1.093611,0.70555 l -1.340556,0.10584 -9.172223,21.76639 c -5.150556,12.20611 -9.278056,21.59 -9.419167,21.34305 -0.141111,-0.21166 -2.151945,-5.89139 -4.480278,-12.59417 -2.328334,-6.70277 -6.420556,-18.34444 -9.031112,-25.89389 -2.645833,-7.54944 -4.797778,-13.79361 -4.797778,-13.86416 0,-0.0353 -2.293056,-0.10584 -5.115278,-0.10584 -2.822223,0 -5.115278,0.10584 -5.115278,0.24695 0.03528,0.17639 5.3975,15.27528 11.959167,33.61972 l 11.888612,33.3375 h 4.868334 4.833056 l 10.371667,-24.16528 10.336389,-24.16527 2.504723,-0.10584 2.469444,-0.10583 4.021667,3.98639 c 4.374445,4.33917 6.279445,6.91444 8.360834,11.32417 2.010834,4.16277 2.575278,6.73805 2.398889,10.83027 -0.105833,2.96334 -0.282222,3.70417 -1.27,5.715 -2.751667,5.57389 -9.031112,8.99584 -17.780001,9.66612 l -3.104445,0.24694 v 4.58611 4.58611 l 3.810001,-0.24694 c 9.807222,-0.67028 16.756945,-3.42195 22.119168,-8.81945 3.13972,-3.175 5.00944,-6.38527 6.0325,-10.44222 0.84667,-3.28083 0.77611,-8.92528 -0.17639,-12.52361 -1.44639,-5.50333 -5.926666,-13.44084 -9.877777,-17.42722 l -2.363611,-2.39889 1.763889,-0.81139 c 1.093611,-0.49389 2.786944,-1.83445 4.303889,-3.31611 3.59833,-3.63361 5.08,-7.02028 5.08,-11.85334 0,-2.92805 -0.45861,-4.79778 -1.79917,-7.54944 -3.28083,-6.70278 -10.089442,-10.40695 -17.250831,-9.34861 z m 4.938889,10.44222 c 4.938889,2.61055 5.715,8.43139 1.552222,12.065 -1.622778,1.44639 -2.575278,1.79917 -4.7625,1.79917 -4.974167,0 -8.643056,-5.08 -6.843889,-9.41917 0.881944,-2.08139 2.2225,-3.56306 3.986389,-4.51556 2.187222,-1.12889 3.81,-1.09361 6.067778,0.0706 z"
       id="path127"
       style="stroke-width:0.0352778" />
  </g>
</svg>
