<?xml version="1.0" encoding="UTF-8" standalone="no"?>
<!-- Created with Inkscape (http://www.inkscape.org/) -->

<svg
        fill="#f1faee"
   width="76.905563mm"
   height="67.772018mm"
   viewBox="0 0 76.905563 67.772018"
   version="1.1"
   id="svg381"
   xmlns="http://www.w3.org/2000/svg"
   xmlns:svg="http://www.w3.org/2000/svg">
  <defs
     id="defs378" />
  <g
     id="layer1"
     transform="translate(-309.1682,-106.64915)">
    <path
       d="m 339.50709,106.75804 c -4.48028,0.38806 -8.60778,0.9525 -11.57111,1.55223 -11.35945,2.36361 -17.99167,8.85472 -18.66195,18.16805 -0.3175,4.51556 1.09361,8.74889 4.19806,12.7 6.31472,7.97278 16.26305,9.91306 24.30639,4.72723 4.58611,-2.99861 8.07861,-7.69056 9.34861,-12.7 1.05833,-4.09223 0.10583,-8.89 -2.46945,-12.73528 l -1.23472,-1.86972 2.01083,-0.24695 c 2.75167,-0.38805 11.46528,0 15.94556,0.635 8.60778,1.30528 15.34584,4.23333 21.97806,9.56028 l 2.71639,2.2225 v -4.72722 -4.72723 l -1.79917,-1.62277 c -5.78556,-5.18584 -13.97,-8.74889 -23.70667,-10.26584 -3.45722,-0.56444 -17.32139,-0.98778 -21.06083,-0.67028 z m -7.90222,12.10028 c 5.04472,2.29306 7.62,8.11389 5.46805,12.34723 -3.4925,6.80861 -10.72444,7.97277 -15.62806,2.54 -3.70416,-4.1275 -3.52777,-8.71362 0.49389,-12.62945 2.89278,-2.78694 6.56167,-3.66889 9.66612,-2.25778 z"
       id="path113"
       style="stroke-width:0.0352778" />
    <path
       d="m 363.24903,134.55694 c -3.52777,0.88194 -6.42055,2.61055 -9.45444,5.64444 -6.52639,6.56167 -7.86695,13.68778 -4.02167,21.02556 0.56445,1.05833 1.30528,2.32833 1.62278,2.78694 l 0.59972,0.84667 -8.43139,-0.21167 c -6.73805,-0.14111 -9.17222,-0.3175 -11.85333,-0.91722 -8.255,-1.79917 -14.88722,-4.93889 -20.67278,-9.80722 l -1.86972,-1.5875 v 4.7625 4.7625 l 1.69333,1.51694 c 9.24278,8.21972 23.77722,11.92389 43.00361,10.86556 17.42723,-0.91722 27.72834,-5.53861 30.86806,-13.79361 1.02306,-2.75167 1.44639,-6.63223 1.02306,-9.56028 -1.5875,-10.54806 -12.80584,-18.66195 -22.50723,-16.33361 z m 7.12612,10.08944 c 1.79916,0.77611 4.16277,3.13972 5.11527,5.11528 2.46945,5.08 -1.23472,11.71222 -7.23194,12.98222 -2.89278,0.59972 -5.36222,-0.28222 -7.9375,-2.89278 -3.21028,-3.21027 -3.95111,-6.70277 -2.15195,-10.23055 2.57528,-5.00945 7.47889,-7.02028 12.20612,-4.97417 z"
       id="path115"
       style="stroke-width:0.0352778" />
  </g>
</svg>
