<?xml version="1.0" encoding="UTF-8" standalone="no"?>
<!-- Created with Inkscape (http://www.inkscape.org/) -->

<svg
        fill="#2f353b"
   width="82.902779mm"
   height="76.905518mm"
   viewBox="0 0 82.902779 76.905518"
   version="1.1"
   id="svg736"
   xmlns="http://www.w3.org/2000/svg"
   xmlns:svg="http://www.w3.org/2000/svg">
  <defs
     id="defs733" />
  <g
     id="layer1"
     transform="translate(57.381069,-115.18011)">
    <path
       d="m -0.2310656,119.41345 v 4.23333 h 5.3622226 5.3975 l -12.8763894,12.87639 -12.8763896,12.87639 -8.396112,-0.0706 -8.360834,-0.10583 v 4.48028 4.51556 h 3.951112 3.986389 l -16.68639,16.68639 c -9.136945,9.13694 -16.651112,16.75694 -16.651112,16.93333 0,0.14111 2.822222,0.24694 6.279445,0.24694 h 6.244167 l 16.933334,-16.93333 16.933335,-16.93333 h 8.6430556 8.6430561 l -0.070556,-4.445 -0.070556,-4.44501 -3.8805558,0.0353 c -2.1519446,0.0353 -3.9158336,-0.0705 -3.9158336,-0.21166 0,-0.35278 17.0391677,-17.39195 17.3919457,-17.39195 0.141111,0 0.246944,2.29306 0.246944,5.11528 v 5.11528 h 4.762501 4.7625 V 128.58567 115.18011 H 12.645324 -0.2310656 Z"
       id="path129"
       style="stroke-width:0.0352778" />
  </g>
</svg>
