<?xml version="1.0" encoding="UTF-8" standalone="no"?>
<!-- Created with Inkscape (http://www.inkscape.org/) -->

<svg
        fill="#2f353b"
   width="76.905563mm"
   height="47.583389mm"
   viewBox="0 0 76.905563 47.583389"
   version="1.1"
   id="svg609"
   xmlns="http://www.w3.org/2000/svg"
   xmlns:svg="http://www.w3.org/2000/svg">
  <defs
     id="defs606" />
  <g
     id="layer1"
     transform="translate(-145.97749,-250.90675)">
    <path
       d="m 180.62027,251.35903 c -7.26722,1.76389 -14.53445,9.63083 -15.13417,16.36889 l -0.21167,2.18722 h -9.63083 -9.66611 v 4.93889 4.93889 h 14.46389 14.46389 v -5.82083 c 0,-5.50334 0.0353,-5.96195 0.84667,-7.54945 1.62277,-3.175 5.75027,-6.0325 8.67833,-6.0325 2.99861,0 7.19667,2.96334 8.67833,6.17361 0.77611,1.62278 0.84667,2.2225 0.84667,7.47889 v 5.75028 h 14.46389 14.46389 v -4.93889 -4.93889 h -9.70139 -9.70139 v -1.16416 c 0,-5.3975 -5.43278,-12.98223 -11.28889,-15.83973 -4.19806,-2.01083 -7.65528,-2.46944 -11.57111,-1.55222 z"
       id="path123"
       style="stroke-width:0.0352778" />
    <path
       d="m 145.97749,293.90403 v 4.58611 h 38.45278 38.45278 v -4.58611 -4.58611 h -38.45278 -38.45278 z"
       id="path125"
       style="stroke-width:0.0352778" />
  </g>
</svg>
