<?xml version="1.0" encoding="UTF-8" standalone="no"?>
<!-- Created with Inkscape (http://www.inkscape.org/) -->

<svg
        fill="#2f353b"
   width="57.502876mm"
   height="76.771599mm"
   viewBox="0 0 57.502876 76.771599"
   version="1.1"
   id="svg199"
   xmlns="http://www.w3.org/2000/svg"
   xmlns:svg="http://www.w3.org/2000/svg">
  <defs
     id="defs196" />
  <g
     id="layer1"
     transform="translate(-49.480982,-109.93721)">
    <path
       d="m 49.481075,111.0661 c 0,1.97555 0.9525,5.715 2.151945,8.5725 1.975555,4.79777 5.150556,8.81944 10.512778,13.47611 l 1.164167,1.02305 -2.328334,1.905 c -6.843889,5.53862 -11.465278,14.39334 -11.500556,21.97806 -0.03528,11.64167 10.01889,24.20056 22.40139,27.97528 3.280834,1.02306 10.160001,0.91722 13.370279,-0.14111 10.371667,-3.45722 18.873616,-12.52361 21.237226,-22.5425 0.81139,-3.38667 0.52916,-9.34861 -0.56445,-12.45306 -2.2225,-6.35 -6.244164,-11.85333 -11.606386,-15.91028 l -1.199445,-0.88194 2.187222,-1.69334 c 6.455839,-4.97416 11.676949,-14.2875 11.676949,-20.84916 v -1.5875 h -4.72723 -4.691941 l -0.246944,1.94027 c -0.705556,6.13834 -5.891389,13.08806 -11.747501,15.76917 -6.632222,2.99861 -13.793612,1.72861 -19.402779,-3.38666 -3.739445,-3.42195 -6.0325,-7.51417 -6.879167,-12.31195 l -0.352778,-2.01083 h -4.727222 -4.727223 z m 32.138058,28.15166 c 8.255,1.51695 15.839723,10.65389 15.839723,19.05 -0.03528,9.34862 -9.807223,19.08528 -19.22639,19.05001 -8.607778,-0.0353 -17.885835,-8.53723 -19.050001,-17.53306 -0.352778,-2.50472 0.388055,-5.89139 2.010833,-9.27806 2.681111,-5.57389 8.572501,-10.37166 13.723057,-11.25361 2.681111,-0.42333 4.515555,-0.45861 6.702778,-0.0353 z"
       id="path109"
       style="stroke-width:0.0352778" />
  </g>
</svg>
