<?xml version="1.0" encoding="UTF-8" standalone="no"?>
<!-- Created with Inkscape (http://www.inkscape.org/) -->

<svg
        fill="#2f353b"
   width="78.623413mm"
   height="76.995422mm"
   viewBox="0 0 78.623413 76.995422"
   version="1.1"
   id="svg270"
   xmlns="http://www.w3.org/2000/svg"
   xmlns:svg="http://www.w3.org/2000/svg">
  <defs
     id="defs267" />
  <g
     id="layer1"
     transform="translate(46.745559,-76.195976)">
    <path
       d="m -39.864244,76.885558 c -2.963334,1.023055 -5.326945,3.280833 -6.20889,5.926667 -0.987778,2.998611 -0.881944,8.396111 0.282223,12.946945 1.658055,6.42056 3.739444,10.44222 6.738056,13.0175 1.411111,1.23472 10.124722,5.78556 11.041945,5.78556 0.352777,0 0.458611,-1.05834 0.458611,-4.58611 v -4.55084 l -2.54,-1.34055 c -1.728612,-0.91723 -2.928056,-1.83445 -3.704167,-2.8575 -1.375834,-1.834449 -3.598334,-8.466671 -3.880556,-11.606394 -0.176389,-1.975556 -0.141111,-2.2225 0.705556,-3.069167 1.834444,-1.834444 5.432778,-1.093611 12.135556,2.469445 2.469444,1.305278 6.314722,3.316111 8.466667,4.445 l 3.986389,2.081389 0.07056,28.821947 0.105833,28.82195 h 4.7625004 4.7625003 l 0.1763889,-28.85723 0.1763889,-28.857222 1.5875001,-0.811389 C 0.1407581,94.242225 3.8802028,92.26667 7.6196475,90.255836 14.463537,86.586947 16.932981,85.634447 19.64937,85.634447 c 2.046112,0 3.245556,1.164167 3.245556,3.139722 0,1.622778 -2.151944,9.313334 -3.139722,11.218334 -0.917222,1.799167 -2.293056,3.033887 -4.727223,4.233337 l -2.046111,1.02305 -0.07056,4.65667 c -0.03528,3.06917 0.07056,4.65667 0.3175,4.65667 0.987778,0 9.877779,-4.79778 11.253612,-6.0325 2.928056,-2.68112 4.762501,-6.35 6.420556,-12.77056 1.164167,-4.586112 1.305278,-9.983612 0.3175,-12.911668 -0.846666,-2.504722 -3.280833,-4.974167 -5.679722,-5.820833 -4.092223,-1.411112 -10.054168,-0.9525 -16.404168,1.27 -3.9158336,1.375833 -5.1152781,2.010833 -9.45444504,4.903611 l -3.63361136,2.434167 h -3.4925002 -3.4925004 l -3.457222,-2.363611 c -6.455834,-4.374445 -12.946946,-6.702778 -19.685001,-7.020278 -2.998612,-0.141112 -3.845279,-0.03528 -5.785556,0.635 z"
       id="path107"
       style="stroke-width:0.0352778" />
  </g>
</svg>
