<?xml version="1.0" encoding="UTF-8" standalone="no"?>
<!-- Created with Inkscape (http://www.inkscape.org/) -->

<svg
        fill="#2f353b"
   width="71.4375mm"
   height="76.905563mm"
   viewBox="0 0 71.4375 76.905563"
   version="1.1"
   id="svg926"
   xmlns="http://www.w3.org/2000/svg"
   xmlns:svg="http://www.w3.org/2000/svg">
  <defs
     id="defs923" />
  <g
     id="layer1"
     transform="translate(-312.61021,-149.16347)">
    <path
       d="m 314.55049,150.82149 c 10.08944,8.67833 14.67555,15.73389 16.36889,25.18833 0.28222,1.62278 0.56444,3.66889 0.635,4.55084 l 0.10583,1.5875 -8.04333,0.10583 -8.00806,0.0706 v 4.93889 4.93889 h 7.86695 c 4.33916,0 7.97278,0.0705 8.04333,0.17638 0.10583,0.0706 0.0353,1.55223 -0.10583,3.24556 -0.635,6.73806 -3.175,13.29972 -7.12611,18.55611 -1.94028,2.61056 -10.54806,11.18306 -11.18306,11.18306 -0.17639,0 -0.3175,0.14111 -0.3175,0.35278 0,0.21166 2.04611,0.35277 5.43278,0.35277 h 5.3975 l 2.96333,-2.61055 c 9.06639,-7.97278 13.22917,-15.69861 14.42861,-26.74056 0.17639,-1.905 0.35278,-3.66889 0.35278,-3.98639 0,-0.45861 0.9525,-0.52916 7.05556,-0.52916 h 7.05555 v 1.83444 c 0,2.89278 0.9525,8.46667 1.94028,11.39472 2.08139,6.24417 4.51556,9.87778 10.61861,15.94556 l 4.69195,4.69194 h 5.64444 5.64445 l -5.89139,-5.89139 c -4.58611,-4.62138 -6.27945,-6.56166 -7.62,-8.85472 -2.89278,-4.90361 -4.69195,-10.54805 -5.32695,-16.75694 l -0.24694,-2.36361 h 7.97278 7.97277 v -4.93889 -4.93889 h -7.9375 -7.9375 v -0.81139 c 0.0353,-3.38667 1.44639,-9.34861 3.175,-13.335 2.39889,-5.60917 5.89139,-10.05417 12.77056,-16.22778 l 3.10444,-2.78695 h -5.75027 -5.75028 l -4.23333,4.02167 c -4.65667,4.40972 -7.19667,7.79639 -9.34862,12.3825 -2.01083,4.30389 -3.4925,10.68917 -3.4925,15.20472 v 1.55223 h -7.05555 c -6.49111,0 -7.05556,-0.0353 -7.05556,-0.635 0,-1.83445 -0.81139,-7.33778 -1.44639,-9.87778 -1.905,-7.65528 -5.715,-13.61722 -12.66472,-19.72028 l -3.31611,-2.92806 h -5.64445 -5.67972 z"
       id="path131"
       style="stroke-width:0.0352778" />
  </g>
</svg>
