<?xml version="1.0" encoding="UTF-8" standalone="no"?>
<!-- Created with Inkscape (http://www.inkscape.org/) -->

<svg
        fill="#2f353b"
   width="78.267029mm"
   height="92.565445mm"
   viewBox="0 0 78.267029 92.565445"
   version="1.1"
   id="svg675"
   xmlns="http://www.w3.org/2000/svg"
   xmlns:svg="http://www.w3.org/2000/svg">
  <defs
     id="defs672" />
  <g
     id="layer1"
     transform="translate(-230.25505,-184.16661)">
    <path
       d="m 241.43811,184.79817 c -3.88056,1.27 -7.3025,4.65667 -9.24278,9.03111 -1.94028,4.37445 -1.94028,3.88056 -1.94028,36.75945 v 30.44472 h 4.7625 4.72723 l 0.10583,-31.15028 0.10583,-31.115 0.88195,-1.72861 c 1.09361,-2.15195 2.25777,-3.06917 4.26861,-3.28083 1.23472,-0.14112 1.79916,0 2.75166,0.67027 1.72862,1.16417 2.46945,2.61056 2.8575,5.60917 0.17639,1.48167 0.35278,15.27528 0.35278,31.78528 v 29.21 h 4.7625 4.72723 l 0.10583,-31.32667 c 0.10583,-31.22083 0.10583,-31.29139 0.88194,-32.94944 0.91723,-1.97556 2.08139,-2.82223 4.26861,-2.99861 2.18723,-0.21167 3.81,0.84666 5.00945,3.24555 l 0.88194,1.76389 0.17639,31.92639 c 0.17639,31.67945 0.21167,31.96167 0.9525,34.21945 1.69334,4.93889 4.86834,8.89 8.81945,10.83028 1.83444,0.88194 2.39889,0.98777 5.57389,0.98777 4.33916,-0.0353 6.10305,-0.74083 9.03111,-3.70416 3.06917,-3.03389 5.22111,-7.97278 5.78555,-13.15861 0.14112,-1.30528 0.3175,-2.36362 0.38806,-2.36362 0.0353,0 1.41111,0.77612 3.03389,1.76389 l 2.92806,1.76389 0.10583,-4.1275 c 0.0706,-2.99861 -0.0353,-4.23333 -0.35278,-4.55083 -0.24694,-0.21167 -2.78694,-2.08139 -5.60917,-4.1275 l -5.15055,-3.70417 -5.60917,3.42195 -5.60917,3.42194 -0.10583,4.83306 c -0.0706,2.64583 0,4.83305 0.10583,4.83305 0.14111,0 1.5875,-0.81139 3.24556,-1.79916 1.62278,-0.98778 3.06917,-1.72862 3.175,-1.5875 0.3175,0.3175 -0.635,5.96194 -1.23472,7.23194 -0.81139,1.72861 -2.32834,2.57528 -4.40973,2.39889 -2.15194,-0.17639 -3.35138,-1.05833 -4.48027,-3.28083 l -0.88195,-1.72862 -0.17639,-31.75 -0.17639,-31.75 -0.84666,-2.46944 c -1.23472,-3.70417 -2.96334,-6.56167 -5.32695,-8.78417 -1.72861,-1.5875 -2.61055,-2.11667 -4.65666,-2.71639 -4.62139,-1.41111 -9.45445,-0.38806 -13.0175,2.78694 l -1.62278,1.44639 -1.37584,-1.41111 c -3.03389,-3.10444 -8.50194,-4.30389 -12.94694,-2.82222 z"
       id="path121"
       style="stroke-width:0.0352778" />
  </g>
</svg>
