<?xml version="1.0" encoding="UTF-8" standalone="no"?>
<!-- Created with Inkscape (http://www.inkscape.org/) -->

<svg
        fill="#f1faee"
   width="76.905563mm"
   height="48.683331mm"
   viewBox="0 0 76.905563 48.683331"
   version="1.1"
   id="svg860"
   xmlns="http://www.w3.org/2000/svg"
   xmlns:svg="http://www.w3.org/2000/svg">
  <defs
     id="defs857" />
  <g
     id="layer1"
     transform="translate(-140.6676,-153.00875)">
    <path
       d="m 146.94704,159.67625 -6.27944,6.42055 v 5.25639 5.29167 l 6.42055,-6.45583 6.45584,-6.42056 6.35,6.35 6.38528,6.35 6.42055,-6.42056 6.42056,-6.45583 6.42056,6.45583 6.42055,6.42056 6.38528,-6.35 6.35,-6.35 6.45583,6.42056 6.42056,6.45583 v -5.29167 -5.29166 l -6.45583,-6.45584 -6.42056,-6.42055 -6.35,6.35 -6.35,6.35 -6.42056,-6.42056 -6.45583,-6.45583 -6.45583,6.45583 -6.42056,6.42056 -6.35,-6.35 c -3.4925,-3.4925 -6.42056,-6.31473 -6.52639,-6.31473 -0.10583,0.0353 -2.99861,2.96334 -6.42056,6.45584 z"
       id="path133"
       style="stroke-width:0.0352778" />
    <path
       d="m 147.08815,184.68819 -6.42055,6.42056 v 5.29167 5.29166 l 6.35,-6.35 6.35,-6.35 6.27944,6.27945 c 3.42195,3.42194 6.42056,6.24416 6.59695,6.24416 0.17639,0 3.175,-2.82222 6.59694,-6.24416 l 6.27945,-6.27945 6.27944,6.27945 c 3.42195,3.42194 6.38528,6.24416 6.52639,6.24416 0.14111,0 2.99861,-2.78694 6.31473,-6.17361 3.31611,-3.38666 6.17361,-6.17361 6.42055,-6.17361 0.21167,0 3.21028,2.82222 6.63222,6.24417 l 6.27945,6.27944 v -5.29166 -5.29167 l -6.42056,-6.42056 -6.45583,-6.45583 -6.42056,6.42056 -6.45583,6.45583 -6.35,-6.35 -6.35,-6.35 -6.35,6.35 -6.35,6.35 -6.45584,-6.45583 -6.42055,-6.42056 z"
       id="path135"
       style="stroke-width:0.0352778" />
  </g>
</svg>
