<?xml version="1.0" encoding="UTF-8" standalone="no"?>
<!-- Created with Inkscape (http://www.inkscape.org/) -->

<svg
        fill="#f1faee"
   width="76.078415mm"
   height="92.650574mm"
   viewBox="0 0 76.078415 92.650574"
   version="1.1"
   id="svg485"
   xmlns="http://www.w3.org/2000/svg"
   xmlns:svg="http://www.w3.org/2000/svg">
  <defs
     id="defs482" />
  <g
     id="layer1"
     transform="translate(35.207264,-181.29211)">
    <path
       d="m -1.1690914,181.61417 c -9.2427786,1.19944 -15.2400006,6.24416 -18.4502786,15.48694 -0.987778,2.92806 -1.128889,3.81 -1.128889,6.87917 0,4.1275 0.423333,5.43278 4.586111,14.42861 1.446389,3.10445 2.610556,5.67972 2.610556,5.715 0,0.0353 -1.234723,0 -2.716389,-0.10583 -5.185834,-0.35278 -10.054168,1.44639 -13.82889,5.15056 -8.466667,8.39611 -6.103056,21.97805 4.797778,27.26972 4.903611,2.36361 9.807223,2.25778 14.887223,-0.28222 4.5861116,-2.29306 8.3608341,-7.40834 9.172223,-12.48834 1.16416676,-7.09083 -0.035278,-12.48833 -5.609167,-25.57639 -4.903611,-11.50055 -5.432778,-13.61722 -4.445,-17.92111 1.3758331,-5.85611 4.4802778,-8.74889 10.58333372,-9.80722 1.86972238,-0.3175 3.66888908,-0.3175 7.76111158,0 10.9008337,0.84666 13.7230567,1.62277 16.8980567,4.62139 2.998611,2.89277 3.598333,4.69194 3.563056,11.28889 0,4.65666 -0.07056,5.36222 -0.9525,7.86694 -1.27,3.63361 -2.892778,6.80861 -8.713612,17.00389 -5.644445,9.91306 -6.702778,12.17083 -7.9375005,16.96861 -2.398889,9.525 -1.9050001,16.58056 1.5522225,20.88445 2.328333,2.92805 8.5725,5.29167 12.911667,4.90361 4.515556,-0.42333 9.313334,-2.96333 14.287501,-7.58472 3.033889,-2.82223 3.104445,-2.32834 -0.776111,-6.52639 l -2.2225,-2.36361 -3.033889,2.96333 c -4.092223,3.95111 -5.856112,4.97417 -8.607778,4.97417 -2.504723,-0.0353 -5.185834,-1.09361 -5.856112,-2.36361 -1.199444,-2.18723 -1.023056,-6.63223 0.564445,-12.77056 1.058333,-4.19806 2.8575,-7.83167 8.008056,-16.08667 4.621389,-7.40833 5.503333,-9.06639 7.231944,-13.54667 3.245556,-8.39611 3.527778,-20.0025 0.670278,-26.45833 -1.234722,-2.71639 -3.81,-5.92667 -6.103056,-7.51417 -4.621389,-3.21028 -9.736667,-4.51555 -19.3322231,-5.04472 -6.7733338,-0.38806 -7.2319449,-0.38806 -10.3716673,0.0353 z m -13.1233346,50.72945 c 3.386667,1.72861 5.679723,5.29166 5.679723,8.74888 -0.035278,3.56306 -2.293056,7.05556 -5.785556,8.81945 -4.303889,2.18722 -9.807223,0.21167 -12.311945,-4.40972 -2.116667,-3.91584 -1.516945,-7.69056 1.799167,-11.00667 1.234722,-1.23472 2.645833,-2.2225 3.598333,-2.57528 2.046111,-0.74083 5.044723,-0.56444 7.020278,0.42334 z"
       id="path117"
       style="stroke-width:0.0352778" />
  </g>
</svg>
